<svg version="1.1" id="Ebene_1" xmlns="http://www.w3.org/2000/svg" x="0" y="0" viewBox="0 0 422.2 174.8" xml:space="preserve"><style>.st2{fill:#3b2819}.st4{fill:#fff}</style><path fill="#f9f5f6" d="M8.5 25.5h413.7v51H8.5z"/><path fill="#9e8c83" d="M8.5 25.5h114.9V51H8.5z"/><path class="st2" d="M8.5 0h114.9v25.5H8.5z"/><path fill="#ffe143" d="M0 25.5h8.5V51H0z"/><path class="st4" d="M105.4 4.8h-3.7v15.5h3.7V4.8zm-6.9 10.3c0-.9-.1-1.5-.4-2.1-.3-.5-.6-1-1-1.3s-.9-.6-1.4-.7c-.5-.2-1-.3-1.5-.4l-1-.2c-.6-.1-1-.2-1.4-.4s-.5-.4-.5-.7v-.2c0-.4.2-.7.5-.9.2-.2.8-.3 1.6-.3.4 0 .8 0 1.4.1.5.1 1.1.1 1.6.2.6.1 1.2.1 1.8.2V5c-.5-.1-1-.2-1.6-.3-.5-.1-1-.1-1.6-.2s-1.1-.1-1.7-.1c-.9 0-1.6.1-2.4.3-.7.2-1.4.4-1.9.8-.4.5-.8.9-1.1 1.5-.3.6-.4 1.3-.4 2.1v.6c0 .8.1 1.4.4 1.9.2.5.6.9 1 1.2s.8.6 1.3.7c.5.2 1 .3 1.5.4l.8.1c.8.1 1.4.3 1.8.4.4.1.6.5.6 1v.4c0 .4-.2.7-.5.9-.4.2-1 .3-1.9.3-.4 0-.9 0-1.4-.1-.6-.1-1.1-.1-1.7-.2s-1.3-.2-1.9-.3v3.4l1.8.3c.5.1 1.1.2 1.7.2.6.1 1.2.1 1.8.1 1.1 0 2-.1 2.7-.2.7-.2 1.4-.4 1.8-.8.5-.4.8-.9 1-1.5s.3-1.3.3-2.2v-.6h-.1zm-13.9 0c0-.9-.1-1.5-.4-2.1-.3-.5-.6-1-1-1.3s-.9-.6-1.4-.7c-.5-.2-1-.3-1.6-.4l-1-.2c-.6-.1-1-.2-1.4-.4s-.5-.4-.5-.7v-.2c0-.4.2-.7.5-.9s.9-.3 1.8-.3c.4 0 .8 0 1.4.1.5 0 1 .1 1.5.1.6.1 1.2.1 1.8.2V5c-.5-.1-1-.2-1.6-.3-.5-.1-1-.1-1.5-.2-.6-.1-1.1-.1-1.7-.1-.9 0-1.6.1-2.4.3-.7.2-1.4.4-1.9.8-.5.5-.9.9-1.2 1.5s-.4 1.3-.4 2.1v.6c0 .8.1 1.4.4 1.9.2.5.6.9 1 1.2s.8.6 1.3.7c.5.2 1 .3 1.5.4l.8.1c.8.1 1.4.3 1.8.4.4.1.6.5.6 1v.4c0 .4-.2.7-.5.9-.4.2-1 .3-1.9.3-.4 0-.9 0-1.4-.1-.6-.1-1.1-.1-1.7-.2s-1.3-.2-1.9-.3v3.4l1.8.3c.5.1 1.1.2 1.7.2.6.1 1.2.1 1.8.1 1.1 0 2-.1 2.7-.2.7-.2 1.4-.4 1.8-.8.5-.4.8-.9 1-1.5s.3-1.3.3-2.2v-.6h-.1zm-18.8-.4h-3.7L64 9.3l1.8 5.4zm5.9 5.6L66.2 4.8h-4.5l-5.4 15.5h3.9l.7-2.2h6l.7 2.2h4.1zm-21.3-9.1c-.4.3-.9.4-1.6.4H46V8h2.7c.7 0 1.2.1 1.6.4.4.3.6.7.6 1.4s-.2 1.1-.5 1.4m5 9.1l-4-5.8c1.1-.3 1.8-.8 2.4-1.6.5-.7.8-1.8.8-3.1 0-1.8-.5-3.1-1.4-3.9-1-.8-2.4-1.1-4.4-1.1h-6.5v15.5H46v-5.4h1.4l3.8 5.4h4.2zm-16.6-9.1h-6.4v3.4h2.7v2.3c-.3.1-.5.1-.8.2-.3 0-.5.1-.8.1h-.8c-1 0-1.8-.3-2.3-1-.5-.7-.7-1.7-.7-2.9v-1.1c0-1.3.3-2.3.9-3.1S32.1 8 33.3 8c.5 0 1 0 1.5.1.6.1 1.1.1 1.6.2l1.8.3V5.2c-.5-.1-1-.2-1.5-.4-.5-.1-1-.2-1.7-.2-.6-.1-1.3-.1-2-.1-1.2 0-2.2.2-3.1.5-.9.4-1.6.9-2.2 1.5-.6.7-1 1.5-1.3 2.4s-.4 2-.4 3.2v1.4c0 1.1.1 2 .4 2.9.3.9.7 1.6 1.2 2.2s1.2 1.1 2 1.4 1.8.5 2.9.5c.9 0 1.7-.1 2.4-.2s1.4-.3 2-.4c.7-.2 1.3-.4 1.9-.6v-8.1zM118 46.2V30.8h-2.6l-4.9 10.8-4.9-10.8H103v15.4h2.3V35.3l4 8.7h2.3l4-8.7v10.9h2.4zM98.7 30.8h-2.3V40c0 .5 0 1-.1 1.6-.1.5-.3 1-.5 1.4-.3.4-.6.7-1 1s-1 .4-1.6.4-1.2-.1-1.6-.4c-.4-.3-.8-.6-1-1-.3-.4-.4-.9-.5-1.4s-.1-1-.1-1.6v-9.2h-2.3V40c0 .9.1 1.7.3 2.5.2.8.5 1.5 1 2.1s1 1 1.8 1.4c.7.3 1.6.5 2.6.5s1.9-.2 2.6-.5 1.3-.8 1.8-1.4c.5-.6.8-1.3 1-2.1s.3-1.6.3-2.5v-9.2h-.4zM83.9 46.2V44h-6.8v-4.6h6.2v-2.2h-6.2V33h6.8v-2.2h-9v15.4h9zm-12.8-4.6c0-.8-.1-1.5-.4-2-.2-.5-.6-.9-.9-1.2-.4-.3-.8-.5-1.3-.7s-1-.3-1.5-.4l-1.4-.3c-.5-.1-1-.3-1.3-.6-.4-.3-.5-.7-.5-1.3v-.6c0-.6.2-1 .7-1.4.5-.4 1.2-.5 2.3-.5.4 0 .9 0 1.4.1.5 0 .9.1 1.3.1.5.1.9.1 1.4.2v-2c-.3-.1-.7-.1-1.2-.2-.4-.1-.8-.1-1.3-.2s-1.1-.1-1.6-.1c-1.6 0-2.9.3-3.8 1-.9.7-1.4 1.7-1.4 3.1v.6c0 .7.1 1.3.3 1.8s.5.9.8 1.2.7.5 1.1.7.8.3 1.3.4l1.1.2c.4.1.7.2 1 .3s.6.2.9.4l.6.6c.1.2.2.5.2.9v.5c0 .7-.3 1.3-.9 1.6-.6.4-1.4.5-2.4.5-.4 0-.9 0-1.3-.1-.5-.1-.9-.1-1.3-.2l-1.5-.3v2.2c.4.1.9.2 1.4.3.4.1.9.1 1.4.2.5.1 1.1.1 1.6.1.8 0 1.6-.1 2.2-.2.7-.2 1.2-.4 1.7-.7s.8-.8 1.1-1.3c.2-.5.4-1.2.4-2v-.7h-.2zM57.7 30.8h-2.3V40c0 .5 0 1-.1 1.6-.1.5-.3 1-.5 1.4-.3.4-.6.7-1 1s-1 .4-1.6.4c-.7 0-1.2-.1-1.6-.4-.4-.3-.8-.6-1-1-.3-.4-.4-.9-.5-1.4s-.1-1-.1-1.6v-9.2h-2.3V40c0 .9.1 1.7.3 2.5s.5 1.5 1 2.1 1 1 1.8 1.4c.7.3 1.6.5 2.6.5s1.9-.2 2.6-.5c.7-.3 1.3-.8 1.8-1.4.5-.6.8-1.3 1-2.1s.3-1.6.3-2.5v-9.2h-.4zM42.2 46.2V30.8h-2.6l-4.9 10.8-4.9-10.8h-2.6v15.4h2.3V35.3l4 8.7h2.3l4-8.7v10.9h2.4z"/><path class="st2" d="M400.7 33v-2.2h-11.3V33h4.5v13.2h2.3V33h4.5zm-13.5 8.6c0-.8-.1-1.5-.4-2-.2-.5-.6-.9-.9-1.2-.4-.3-.8-.5-1.3-.7s-1-.3-1.5-.4l-1.3-.3c-.5-.1-1-.3-1.3-.6-.4-.3-.5-.7-.5-1.3v-.6c0-.6.2-1 .7-1.4s1.2-.5 2.3-.5c.4 0 .9 0 1.4.1.5 0 .9.1 1.3.1.5.1.9.1 1.4.2v-2c-.3-.1-.7-.1-1.2-.2-.4-.1-.8-.1-1.3-.2s-1.1-.1-1.6-.1c-1.6 0-2.9.3-3.8 1-.9.7-1.4 1.7-1.4 3.1v.6c0 .7.1 1.3.3 1.8.2.5.5.9.8 1.2s.7.5 1.1.7.8.3 1.3.4l1.1.2c.4.1.7.2 1 .3s.6.2.9.4l.6.6c.1.2.2.5.2.9v.5c0 .7-.3 1.3-.9 1.6-.6.4-1.4.5-2.4.5-.4 0-.9 0-1.3-.1-.5-.1-.9-.1-1.3-.2l-1.5-.3v2.2c.4.1.9.2 1.4.3.4.1.9.1 1.4.2.5.1 1.1.1 1.6.1.8 0 1.6-.1 2.2-.2.7-.2 1.2-.4 1.7-.7s.8-.8 1.1-1.3c.2-.5.4-1.2.4-2v-.7h-.3zm-13.3 4.6V30.8h-2.3V42l-6.8-11.2h-2.3v15.4h2.3V35.1l6.8 11.2 2.3-.1zm-15.6-15.4H356V40c0 .5 0 1-.1 1.6-.1.5-.3 1-.5 1.4-.3.4-.6.7-1 1s-1 .4-1.6.4c-.7 0-1.2-.1-1.6-.4-.4-.3-.8-.6-1-1-.3-.4-.4-.9-.5-1.4s-.1-1-.1-1.6v-9.2H347V40c0 .9.1 1.7.3 2.5.2.8.5 1.5 1 2.1s1 1 1.8 1.4c.7.3 1.6.5 2.6.5s1.9-.2 2.6-.5 1.3-.8 1.8-1.4c.5-.6.8-1.3 1-2.1s.3-1.6.3-2.5l-.1-9.2zm-22.2 0h-2.3v15.4h2.3V30.8zm9 15.4l-6-8.2 5.7-7.2H342l-5.7 7.3 6 8.1h2.8zm-21.6 0V44h-6.8v-4.6h6.2v-2.2h-6.2V33h6.8v-2.2h-9v15.4h9zm-12-13.2v-2.2h-11.3V33h4.5v13.2h2.3V33h4.5zm-15.3 7c0 .5-.1 1-.2 1.5s-.3.9-.6 1.3-.7.7-1.1.9c-.5.2-1 .3-1.7.3h-3.1V33h3.1c.7 0 1.2.1 1.7.3s.8.5 1.1.9c.3.4.5.8.6 1.3s.2 1 .2 1.5v3zm2.3-3c0-.9-.1-1.7-.4-2.5-.2-.8-.6-1.4-1.1-2-.5-.6-1.1-1-1.9-1.3-.7-.3-1.6-.5-2.7-.5H287v15.4h5.4c1 0 1.9-.2 2.7-.5.7-.3 1.4-.7 1.9-1.3s.8-1.2 1.1-2c.2-.8.4-1.6.4-2.5V37zm-15.3 9.2V30.8h-2.3V42l-6.8-11.2h-2.3v15.4h2.3V35.1l6.8 11.2 2.3-.1zm-18-4.8h-5.5l2.8-7.4 2.7 7.4zm4.2 4.8l-5.8-15.4h-2.3l-5.8 15.4h2.4l1.1-2.7h6.9l1.1 2.7h2.4zm-14.1-15.4h-2.6l-3.3 11.9-3.8-11.9h-2.4l-3.8 11.9-3.4-11.9h-2.6l4.6 15.4h2.4l3.9-12 3.9 12h2.4l4.7-15.4zm-23.9 15.4V44h-6.8v-4.6h6.2v-2.2h-6.2V33h6.8v-2.2h-9v15.4h9zm-12.9-8.4h-5.8V40h3.5v3.8c-.3.1-.6.2-1 .3-.3.1-.7.1-1 .2-.4 0-.8.1-1.2.1-.7 0-1.2-.1-1.7-.4-.4-.3-.8-.6-1.1-1s-.5-.9-.6-1.4-.2-1-.2-1.6v-2.4c0-.6.1-1.3.2-1.8.1-.6.3-1.1.6-1.6s.7-.8 1.2-1.1 1.1-.4 1.9-.4c.5 0 1 0 1.5.1s1 .2 1.5.2c.5.1 1.1.2 1.6.4v-2.1c-.4-.1-.8-.3-1.3-.4-.4-.1-.9-.2-1.5-.3-.6-.1-1.2-.1-1.9-.1-1.1 0-2.1.2-2.8.5-.8.4-1.4.8-1.9 1.5-.5.6-.9 1.4-1.1 2.2-.2.9-.4 1.8-.4 2.8V40c0 .9.1 1.7.3 2.5s.6 1.5 1 2.1c.5.6 1.1 1 1.8 1.4.7.3 1.6.5 2.6.5.9 0 1.7-.1 2.4-.2s1.3-.3 1.7-.4c.5-.2 1-.4 1.4-.6v-7.5h.3zm-15.1 8.4V30.8h-2.3V42l-6.8-11.2H192v15.4h2.3V35.1l6.8 11.2 2.3-.1zm-18-4.8h-5.5l2.8-7.4 2.7 7.4zm4.2 4.8l-5.8-15.4h-2.3l-5.8 15.4h2.4l1.1-2.7h6.9l1.1 2.7h2.4zm-25.4-8.9c-.5.4-1.4.6-2.6.6h-2.8V33h2.8c1.1 0 1.9.2 2.5.5s.9 1 .9 1.9c0 .9-.2 1.5-.8 1.9m3.9 8.9l-4.5-6.4c1.3-.3 2.2-.7 2.8-1.5.6-.7.9-1.7.9-2.9 0-1.6-.5-2.7-1.4-3.5-.9-.7-2.3-1.1-4.3-1.1h-5.1v15.4h2.3V40h2.3l4.3 6.2h2.7zm-15.6-15.4h-2.3V40c0 .5 0 1-.1 1.6-.1.5-.3 1-.5 1.4-.3.4-.6.7-1 1s-1 .4-1.6.4-1.2-.1-1.6-.4c-.4-.3-.8-.6-1-1-.3-.4-.4-.9-.5-1.4s-.1-1-.1-1.6v-9.2h-2.3V40c0 .9.1 1.7.3 2.5s.5 1.5 1 2.1 1 1 1.8 1.4c.7.3 1.6.5 2.6.5s1.9-.2 2.6-.5c.7-.3 1.3-.8 1.8-1.4.5-.6.8-1.3 1-2.1s.3-1.6.3-2.5v-9.2h-.4zm-6.8-3.7h-2.3v2.3h2.3v-2.3zm4.6 0H148v2.3h2.3v-2.3zM137.9 33v-2.2h-9v15.4h2.3v-6.5h6.2v-2.2h-6.2V33h6.7z"/><path d="M406.5 155.6v-8.5h-11.8V96.9h11.8v-8.5h-36.4v8.5h11.8v50.2h-11.8v8.5h36.4zM361.1 137v-2.8c0-11.7-6.6-15.5-13.8-17.9l-8-2.7c-3.3-1.1-5.6-2.8-5.6-6v-1.4c0-4.5 2.5-6.9 9-6.9 6.2 0 17.5 1.8 17.5 1.8V89.6s-9.5-2.1-17.7-2.1c-11.8 0-21.6 5.3-21.6 18.7v2.4c0 9.9 5.2 14.4 12 16.7l8 2.6c4.2 1.4 7.4 3 7.4 7.2v1.9c0 5.5-2.7 7.8-9.9 7.8-5.6 0-18-2.5-18-2.5v11.8s10.7 2.5 18.7 2.5c14.6 0 22-4.9 22-19.6m-50.6 0v-2.8c0-11.7-6.6-15.5-13.8-17.9l-8-2.7c-3.3-1.1-5.6-2.8-5.6-6v-1.4c0-4.5 2.5-6.9 9-6.9 6.2 0 17.5 1.8 17.5 1.8V89.6s-9.5-2.1-17.7-2.1c-11.8 0-21.6 5.3-21.6 18.7v2.4c0 9.9 5.2 14.4 12 16.7l8 2.6c4.2 1.4 7.4 3 7.4 7.2v1.9c0 5.5-2.7 7.8-9.9 7.8-5.6 0-18-2.5-18-2.5v11.8s10.7 2.5 18.7 2.5c14.6 0 22-4.9 22-19.6m-67.5-4.6h-15l7.6-27.3 7.4 27.3zm20.2 23.2l-19.9-67.2h-15.6l-19.9 67.2h13.7l3.1-11.4h21.7l3.1 11.4h13.8zm-75.7-46.8c0 6.9-3.9 9-10.7 9h-8.2v-18h8.5c6.8 0 10.4 2.1 10.4 9m15.6 46.8l-16.4-27.4c8.5-2.2 13.5-8.2 13.5-19.4 0-14.5-8.1-20.3-21.8-20.3h-22.7v67.2h12.8v-26.5h4.6l15.7 26.5h14.3v-.1zm-61.5-4.2v-34.1h-24.1v11.8h11.4V143s-4.4 1.7-10 1.7c-7.7 0-10.8-5-10.8-13.7v-17c0-9.1 3.4-14.7 12.8-14.7 7 0 18.9 2.9 18.9 2.9V90.9s-8.6-3.4-19.4-3.4c-16.5 0-25.1 9.7-25.1 26.5v18c0 15.8 7.4 24.6 23.2 24.6 12.9 0 23.1-5.2 23.1-5.2"/><path fill="#afc428" d="M10.3 167.5h411.9v7.4H10.3z"/></svg>